<svg width="190" height="57" viewBox="0 0 190 57" fill="none" xmlns="http://www.w3.org/2000/svg">
<path d="M39.083 12.289C35.4094 12.1942 34.1856 13.2516 27.3292 13.2516C20.4728 13.2516 20.5908 12.289 16.9172 12.289C14.2993 12.289 9.44864 14.9944 12.5095 23.3458C13.9093 27.1649 15.1355 31.6295 16.305 35.3436C18.0858 40.9986 18.7538 45.2241 21.08 45.2241C23.4063 45.2241 24.5082 42.754 24.998 39.2252C25.9643 35.7439 26.5731 35.3536 28.0001 35.3438C29.4271 35.3536 30.0359 35.7439 31.0022 39.2252C31.492 42.754 32.5939 45.2241 34.9202 45.2241C37.2464 45.2241 37.9144 40.9986 39.6952 35.3436C40.8647 31.6295 42.0909 27.1649 43.4907 23.3458C46.5516 14.9944 41.6999 12.3565 39.083 12.289Z" fill="#ECECFB"/>
<path fill-rule="evenodd" clip-rule="evenodd" d="M52.0502 5.47991C45.8644 -0.992743 37.9127 0.0386278 32.4527 3.48201C29.7264 5.20139 27.5606 7.55342 26.5088 9.9552C25.4519 12.3686 25.4953 14.9304 27.3947 16.8333C28.2919 17.7322 29.508 18.0291 30.7558 18.0761C32.0004 18.1229 33.3826 17.9236 34.6941 17.7326L34.736 17.7265C36.0603 17.5337 37.3134 17.3512 38.4169 17.3783C39.5308 17.4056 40.3774 17.6459 40.9546 18.2C41.0338 18.2761 41.1314 18.4279 41.2145 18.7091C41.2965 18.9863 41.3525 19.3487 41.3783 19.7986C41.4299 20.6993 41.356 21.8675 41.1929 23.233C40.9082 25.6155 40.3639 28.5063 39.8075 31.4613L39.8075 31.4615L39.8056 31.4718C39.7253 31.8984 39.6447 32.3263 39.5646 32.7542C38.933 36.1299 38.3317 39.5087 38.1569 42.1441C38.0697 43.4577 38.0846 44.6328 38.2743 45.548C38.4581 46.4349 38.851 47.2773 39.692 47.5837C40.6687 47.9395 41.7672 47.5115 42.7834 46.8029C43.8331 46.0709 44.9686 44.9213 46.1105 43.4857C48.3991 40.6087 50.7944 36.4807 52.6528 31.9245C54.5108 27.3694 55.8483 22.347 55.9878 17.6815C56.1273 13.0185 55.0698 8.63953 52.0502 5.47991ZM28.2657 15.9606C26.839 14.5312 26.7105 12.5662 27.6368 10.451C28.5682 8.32427 30.5408 6.14606 33.109 4.52646C38.2379 1.29188 45.4998 0.41032 51.1604 6.33341C53.869 9.16762 54.8903 13.1695 54.7565 17.6446C54.6227 22.1172 53.3348 26.9901 51.5125 31.4577C49.6907 35.9241 47.351 39.9461 45.1471 42.7166C44.0428 44.1048 42.9927 45.1533 42.0796 45.79C41.1329 46.4502 40.4914 46.5617 40.113 46.4238C39.9005 46.3464 39.6418 46.0756 39.4805 45.2971C39.325 44.5471 39.3012 43.5047 39.386 42.226C39.5552 39.6767 40.1412 36.3714 40.7754 32.9815C40.8556 32.5528 40.9366 32.1228 41.0176 31.693L41.0176 31.6929C41.5728 28.7444 42.126 25.807 42.416 23.3796C42.5821 21.9898 42.666 20.737 42.6082 19.7279C42.5793 19.223 42.5139 18.7585 42.3957 18.3586C42.2786 17.9628 42.0973 17.5877 41.8069 17.309C40.9059 16.4438 39.6891 16.175 38.4471 16.1445C37.2379 16.1148 35.8961 16.3103 34.6173 16.4967L34.5169 16.5113C33.1798 16.706 31.9135 16.8847 30.8021 16.8428C29.694 16.8011 28.8467 16.5426 28.2657 15.9606ZM1.34252 18.0678C0.920599 13.5086 1.73998 10.2288 3.19172 7.93183C4.64194 5.6373 6.76046 4.26418 9.05039 3.58253C11.348 2.8986 13.8064 2.91579 15.8858 3.40109C17.9902 3.8922 19.5916 4.83302 20.2982 5.88168C21.8594 8.19893 21.961 10.0996 21.5919 11.8523C21.4026 12.7513 21.0875 13.6183 20.7519 14.5115L20.6783 14.7073L20.6782 14.7074C20.3699 15.5262 20.0503 16.375 19.8406 17.2384C19.015 20.6391 19.043 24.8373 19.0728 29.2832L19.0728 29.2841C19.0784 30.123 19.0841 30.9708 19.0841 31.8238C19.0841 33.8034 19.8442 37.7294 20.8817 41.1333C21.4025 42.8417 22.0047 44.4581 22.6372 45.6591C22.9522 46.2571 23.2896 46.7813 23.648 47.1645C23.9924 47.5328 24.4474 47.8677 24.9971 47.8677C25.6434 47.8677 26.1469 47.5443 26.5196 47.0919C26.8793 46.6554 27.1442 46.071 27.3555 45.4419C27.7345 44.3135 27.9975 42.8585 28.2558 41.43C28.2851 41.2674 28.3145 41.1053 28.3439 40.9439C28.6387 39.3271 28.9447 37.789 29.412 36.6567C29.8922 35.4932 30.4224 35.0326 31.0332 35.0326C31.2623 35.0326 31.6169 35.1944 32.0677 35.7416C32.5029 36.2697 32.9416 37.0561 33.3469 38.044C34.1551 40.0142 34.7818 42.6666 35.0082 45.3284C35.2355 47.9998 35.0532 50.6068 34.3055 52.5173C33.9339 53.4669 33.4345 54.2146 32.8056 54.7229C32.1857 55.224 31.4077 55.5194 30.4173 55.5194C28.358 55.5194 25.6138 54.3947 22.5755 52.3087C19.5583 50.2374 16.3297 47.2724 13.3172 43.7195C7.28297 36.6028 2.18911 27.2157 1.34252 18.0678ZM21.3192 5.19121C20.3627 3.77157 18.4072 2.72233 16.1653 2.19913C13.8986 1.67011 11.2217 1.64873 8.69953 2.3995C6.16978 3.15254 3.78426 4.68738 2.15095 7.27159C0.519171 9.85339 -0.324472 13.4231 0.115914 18.1817C0.993946 27.6694 6.2478 37.2882 12.3783 44.5185C15.4481 48.139 18.7561 51.1828 21.8791 53.3268C24.9808 55.4562 27.9803 56.7535 30.4173 56.7535C31.6751 56.7535 32.7295 56.3702 33.5791 55.6834C34.4199 55.0038 35.0271 54.0546 35.4524 52.9678C36.2985 50.8057 36.4704 47.9824 36.2357 45.2236C36.0001 42.4551 35.3488 39.6773 34.4863 37.5748C34.0562 36.5263 33.5614 35.6158 33.0178 34.956C32.4899 34.3153 31.8205 33.7984 31.0332 33.7984C29.6115 33.7984 28.7866 34.9421 28.2736 36.1852C27.7477 37.4595 27.4224 39.1302 27.1321 40.7221C27.103 40.8816 27.0743 41.0403 27.0457 41.1979L27.0456 41.1988C26.7826 42.6512 26.5363 44.0113 26.188 45.0483C25.9951 45.6226 25.7883 46.0409 25.5696 46.3062C25.364 46.5558 25.1822 46.6335 24.9971 46.6335C24.9615 46.6335 24.8121 46.6043 24.5469 46.3207C24.2957 46.052 24.0181 45.6364 23.7267 45.0832C23.1466 43.9815 22.5709 42.4492 22.0599 40.7729C21.0341 37.4073 20.3159 33.6199 20.3159 31.8238C20.3159 30.9456 20.3105 30.0811 20.3051 29.2327C20.2768 24.7799 20.2513 20.7688 21.0376 17.5301C21.2286 16.7434 21.5224 15.9627 21.8367 15.1275L21.9049 14.9463C22.2391 14.0565 22.5862 13.1091 22.7972 12.1071C23.2288 10.058 23.084 7.81054 21.3192 5.19121Z" fill="#5555DA"/>
<path d="M67.7779 21.5262V18.0476H75.7364V15.0961H64.6682V31.2241H75.7364V28.2726H67.7779V24.1615H74.1026V21.5262H67.7779Z" fill="#121244"/>
<path d="M85.7425 17.5469L83.0282 26.8232L80.2875 17.5469H77.3096L81.5524 31.2241H84.4776L88.8258 17.5469H85.7425Z" fill="#121244"/>
<path d="M96.1159 19.8396C97.8288 19.8396 98.9093 21.0519 98.883 22.633H93.2171C93.2171 21.0519 94.4557 19.8396 96.1159 19.8396ZM96.1159 17.257C92.1103 17.257 90.0811 20.5775 90.0811 24.2669C90.0811 28.1672 92.5846 31.4876 96.6957 31.4876C98.3296 31.4876 100.438 30.8288 101.439 29.4848L100.306 27.2712C99.4891 28.2726 98.0133 28.8523 96.7484 28.8523C94.5347 28.8523 93.0853 27.0603 93.0853 24.9521H101.597C101.624 24.3987 101.624 23.8189 101.624 23.2655C101.624 19.8923 99.6472 17.257 96.1159 17.257Z" fill="#121244"/>
<path d="M110.765 20.5248C111.187 20.5248 111.582 20.6302 111.978 20.7883L113.453 17.6787C112.742 17.4679 112.189 17.2834 111.477 17.2834C110.054 17.2834 108.446 18.2585 107.972 19.6288V17.5469H105.047V31.2241H107.972V24.3196C107.972 22.5013 108.605 20.5248 110.765 20.5248Z" fill="#121244"/>
<path d="M117.829 36.1521C120.254 36.1521 121.387 33.4641 122.151 31.5667C122.414 30.8815 122.652 30.1963 122.889 29.5112C124.206 25.5319 125.445 21.4999 126.815 17.5469H123.732L121.018 26.4806L118.251 17.5469H115.115L119.516 30.4599C119.358 31.3295 118.751 33.4641 117.645 33.4641C117.144 33.4641 116.643 33.306 116.222 33.0425L115.167 35.3615C115.774 35.8095 117.065 36.1521 117.829 36.1521Z" fill="#121244"/>
<path d="M137.824 27.0867C137.824 22.8702 131.816 23.529 131.816 21.3418C131.816 20.314 133.054 19.866 133.95 19.866C134.82 19.866 135.98 20.1559 136.665 20.7356L137.614 18.6538C136.718 17.626 134.741 17.257 133.45 17.257C130.946 17.257 128.627 18.6274 128.627 21.3681C128.627 25.7163 134.557 24.8994 134.557 27.0867C134.557 28.2462 133.423 28.7733 132.369 28.7733C131.236 28.7733 129.918 28.1935 129.022 27.5347L127.81 30.0909C129.128 31.0133 131.183 31.4876 132.765 31.4876C135.4 31.4876 137.824 29.9592 137.824 27.0867Z" fill="#121244"/>
<path d="M147.223 17.257C145.8 17.257 144.272 18.2058 143.745 19.5234V17.5469H140.793V31.2241H143.745V23.9507C143.745 22.3695 144.43 20.5248 146.301 20.5248C148.356 20.5248 148.673 22.2378 148.673 23.9507V31.2241H151.598V26.3225C151.598 24.346 151.255 20.5248 154.18 20.5248C156.21 20.5248 156.526 22.2641 156.526 23.9507V31.2241H159.451V22.5803C159.451 19.7869 158.212 17.257 155.076 17.257C153.311 17.257 151.756 18.153 151.176 19.8923C150.517 18.0476 149.121 17.257 147.223 17.257Z" fill="#121244"/>
<path d="M166.784 17.5469H163.859V31.2241H166.784V17.5469ZM167.1 14.2528C167.1 13.3041 166.257 12.5662 165.335 12.5662C164.386 12.5662 163.569 13.3041 163.569 14.2528C163.569 15.2279 164.386 15.9658 165.335 15.9658C166.257 15.9658 167.1 15.2279 167.1 14.2528Z" fill="#121244"/>
<path d="M170.082 25.7954C170.082 28.4307 170.688 31.4876 173.955 31.4876C175.01 31.4876 176.064 31.2505 176.933 30.6443L175.906 28.378C175.537 28.6415 175.062 28.7733 174.614 28.7733C173.139 28.7733 173.112 26.7705 173.112 25.7163V12.777H170.082V25.7954Z" fill="#121244"/>
<path d="M184.053 19.8396C185.766 19.8396 186.847 21.0519 186.82 22.633H181.155C181.155 21.0519 182.393 19.8396 184.053 19.8396ZM184.053 17.257C180.048 17.257 178.019 20.5775 178.019 24.2669C178.019 28.1672 180.522 31.4876 184.633 31.4876C186.267 31.4876 188.375 30.8288 189.377 29.4848L188.244 27.2712C187.427 28.2726 185.951 28.8523 184.686 28.8523C182.472 28.8523 181.023 27.0603 181.023 24.9521H189.535C189.561 24.3987 189.561 23.8189 189.561 23.2655C189.561 19.8923 187.585 17.257 184.053 17.257Z" fill="#121244"/>
<path d="M66.8832 38.9982C68.2536 38.9982 69.3253 39.376 70.0983 40.1314C70.8713 40.8869 71.2578 41.9586 71.2578 43.3465C71.2578 44.7344 70.8713 45.8061 70.0983 46.5615C69.3253 47.317 68.2536 47.6947 66.8832 47.6947H64.0767V38.9982H66.8832ZM66.9887 46.7065C67.9813 46.7065 68.7543 46.4122 69.3077 45.8237C69.8699 45.2263 70.151 44.4006 70.151 43.3465C70.151 42.2924 69.8699 41.471 69.3077 40.8825C68.7543 40.2851 67.9813 39.9865 66.9887 39.9865H65.1308V46.7065H66.9887Z" fill="#72728B"/>
<path d="M78.7645 44.058C78.7645 44.304 78.7469 44.5499 78.7118 44.7959H73.7443C73.8058 45.4635 74.0254 45.9818 74.4031 46.3507C74.7896 46.7197 75.2859 46.9041 75.892 46.9041C76.3752 46.9041 76.7749 46.8207 77.0911 46.6538C77.4161 46.4869 77.6357 46.2453 77.7499 45.9291L78.6327 46.3902C78.3692 46.8558 78.0178 47.2116 77.5786 47.4575C77.1394 47.7035 76.5772 47.8265 75.892 47.8265C74.8994 47.8265 74.1176 47.5234 73.5466 46.9173C72.9844 46.3112 72.7033 45.4723 72.7033 44.4006C72.7033 43.3289 72.9713 42.49 73.5071 41.8839C74.0517 41.2778 74.8204 40.9747 75.813 40.9747C76.4279 40.9747 76.9593 41.1109 77.4073 41.3832C77.8553 41.6555 78.1935 42.0244 78.4219 42.49C78.6503 42.9556 78.7645 43.4782 78.7645 44.058ZM75.813 41.8971C75.2332 41.8971 74.7633 42.0684 74.4031 42.411C74.0517 42.7535 73.8365 43.2367 73.7575 43.8604H77.7499C77.6796 43.2455 77.4776 42.7667 77.1438 42.4241C76.81 42.0728 76.3664 41.8971 75.813 41.8971Z" fill="#72728B"/>
<path d="M83.7064 40.9747C84.4531 40.9747 85.068 41.1899 85.5511 41.6204C86.0342 42.0508 86.2758 42.6701 86.2758 43.4782V47.6947H85.2217V43.8472C85.2217 43.162 85.0724 42.6657 84.7737 42.3582C84.4838 42.0508 84.0929 41.8971 83.601 41.8971C83.2496 41.8971 82.9202 41.9761 82.6128 42.1342C82.3053 42.2836 82.0506 42.5339 81.8485 42.8853C81.6553 43.2279 81.5586 43.6627 81.5586 44.1898V47.6947H80.5045V41.1065H81.4269L81.4928 42.1342C81.7124 41.739 82.0154 41.4491 82.4019 41.2646C82.7884 41.0713 83.2233 40.9747 83.7064 40.9747Z" fill="#72728B"/>
<path d="M92.341 47.2335C91.9018 47.6288 91.3352 47.8265 90.6412 47.8265C90.1054 47.8265 89.6662 47.6815 89.3236 47.3917C88.9898 47.1018 88.8185 46.6582 88.8097 46.0608V42.0157H87.4921V41.1065H88.8097V39.5253L89.8638 39.2354V41.1065H92.3015V42.0157H89.8638V45.8764C89.8638 46.1926 89.9517 46.4342 90.1274 46.6011C90.3118 46.7592 90.5534 46.8382 90.8521 46.8382C91.2737 46.8382 91.647 46.6757 91.9721 46.3507L92.341 47.2335Z" fill="#72728B"/>
<path d="M98.968 46.9305C99.1437 46.9305 99.3194 46.9085 99.4951 46.8646L99.4292 47.6947C99.1833 47.7826 98.9197 47.8265 98.6386 47.8265C98.2961 47.8265 98.0237 47.7518 97.8217 47.6025C97.6284 47.4531 97.5055 47.2028 97.4528 46.8514C97.2507 47.1589 96.952 47.4004 96.5568 47.5761C96.1702 47.743 95.7618 47.8265 95.3313 47.8265C94.6813 47.8265 94.1455 47.6771 93.7238 47.3785C93.3022 47.071 93.0913 46.6318 93.0913 46.0608C93.0913 45.5601 93.311 45.1297 93.7502 44.7695C94.1894 44.4006 94.8262 44.1459 95.6608 44.0053L97.4132 43.7154V43.3465C97.4132 42.9073 97.2771 42.5559 97.0048 42.2924C96.7324 42.0288 96.3547 41.8971 95.8716 41.8971C95.4324 41.8971 95.0502 42.0025 94.7252 42.2133C94.409 42.4241 94.163 42.736 93.9873 43.1488L93.2099 42.5822C93.3856 42.0903 93.7106 41.6994 94.185 41.4095C94.6681 41.1197 95.2303 40.9747 95.8716 40.9747C96.6534 40.9747 97.2815 41.1636 97.7558 41.5413C98.2302 41.919 98.4673 42.4768 98.4673 43.2147V46.4561C98.4673 46.6142 98.5069 46.7328 98.5859 46.8119C98.665 46.8909 98.7924 46.9305 98.968 46.9305ZM95.384 46.9041C95.9375 46.9041 96.4118 46.7724 96.8071 46.5088C97.2112 46.2453 97.4132 45.9027 97.4132 45.4811V44.5719L95.9375 44.8486C95.3489 44.954 94.9097 45.1077 94.6198 45.3098C94.3299 45.503 94.185 45.7534 94.185 46.0608C94.185 46.3331 94.2904 46.544 94.5012 46.6933C94.712 46.8339 95.0063 46.9041 95.384 46.9041Z" fill="#72728B"/>
<path d="M101.767 45.9291C101.767 46.2629 101.815 46.4957 101.912 46.6274C102.017 46.7504 102.206 46.8119 102.478 46.8119C102.663 46.8119 102.821 46.7987 102.953 46.7724C103.093 46.746 103.256 46.6977 103.44 46.6274L103.269 47.642C102.979 47.765 102.654 47.8265 102.294 47.8265C101.758 47.8265 101.358 47.6815 101.095 47.3917C100.84 47.1018 100.713 46.6582 100.713 46.0608V38.0759H101.767V45.9291Z" fill="#72728B"/>
<path d="M111.627 44.0844H109.545V47.6947H108.491V38.9982H111.785C112.672 38.9982 113.384 39.2266 113.92 39.6834C114.456 40.1402 114.724 40.7595 114.724 41.5413C114.724 42.1562 114.552 42.6745 114.21 43.0961C113.867 43.5178 113.397 43.8077 112.8 43.9658L115.251 47.6947H113.999L111.627 44.0844ZM109.545 43.0961H111.772C113.002 43.0961 113.617 42.5779 113.617 41.5413C113.617 40.5048 113.002 39.9865 111.772 39.9865H109.545V43.0961Z" fill="#72728B"/>
<path d="M122.227 44.058C122.227 44.304 122.209 44.5499 122.174 44.7959H117.207C117.268 45.4635 117.488 45.9818 117.865 46.3507C118.252 46.7197 118.748 46.9041 119.354 46.9041C119.837 46.9041 120.237 46.8207 120.553 46.6538C120.878 46.4869 121.098 46.2453 121.212 45.9291L122.095 46.3902C121.831 46.8558 121.48 47.2116 121.041 47.4575C120.602 47.7035 120.039 47.8265 119.354 47.8265C118.362 47.8265 117.58 47.5234 117.009 46.9173C116.447 46.3112 116.166 45.4723 116.166 44.4006C116.166 43.3289 116.434 42.49 116.969 41.8839C117.514 41.2778 118.283 40.9747 119.275 40.9747C119.89 40.9747 120.422 41.1109 120.87 41.3832C121.318 41.6555 121.656 42.0244 121.884 42.49C122.113 42.9556 122.227 43.4782 122.227 44.058ZM119.275 41.8971C118.695 41.8971 118.226 42.0684 117.865 42.411C117.514 42.7535 117.299 43.2367 117.22 43.8604H121.212C121.142 43.2455 120.94 42.7667 120.606 42.4241C120.272 42.0728 119.829 41.8971 119.275 41.8971Z" fill="#72728B"/>
<path d="M124.968 45.9291C124.968 46.2629 125.017 46.4957 125.113 46.6274C125.219 46.7504 125.407 46.8119 125.68 46.8119C125.864 46.8119 126.022 46.7987 126.154 46.7724C126.295 46.746 126.457 46.6977 126.642 46.6274L126.47 47.642C126.18 47.765 125.855 47.8265 125.495 47.8265C124.959 47.8265 124.56 47.6815 124.296 47.3917C124.041 47.1018 123.914 46.6582 123.914 46.0608V38.0759H124.968V45.9291Z" fill="#72728B"/>
<path d="M128.258 39.8415C128.021 39.8415 127.827 39.7713 127.678 39.6307C127.538 39.4814 127.467 39.2881 127.467 39.051C127.467 38.8138 127.538 38.6249 127.678 38.4844C127.827 38.335 128.021 38.2604 128.258 38.2604C128.495 38.2604 128.684 38.335 128.824 38.4844C128.974 38.6249 129.048 38.8138 129.048 39.051C129.048 39.2881 128.974 39.4814 128.824 39.6307C128.684 39.7713 128.495 39.8415 128.258 39.8415ZM128.785 47.6947H127.731V41.1065H128.785V47.6947Z" fill="#72728B"/>
<path d="M136.62 44.058C136.62 44.304 136.602 44.5499 136.567 44.7959H131.6C131.661 45.4635 131.881 45.9818 132.259 46.3507C132.645 46.7197 133.141 46.9041 133.748 46.9041C134.231 46.9041 134.63 46.8207 134.947 46.6538C135.272 46.4869 135.491 46.2453 135.605 45.9291L136.488 46.3902C136.225 46.8558 135.873 47.2116 135.434 47.4575C134.995 47.7035 134.433 47.8265 133.748 47.8265C132.755 47.8265 131.973 47.5234 131.402 46.9173C130.84 46.3112 130.559 45.4723 130.559 44.4006C130.559 43.3289 130.827 42.49 131.363 41.8839C131.907 41.2778 132.676 40.9747 133.668 40.9747C134.283 40.9747 134.815 41.1109 135.263 41.3832C135.711 41.6555 136.049 42.0244 136.277 42.49C136.506 42.9556 136.62 43.4782 136.62 44.058ZM133.668 41.8971C133.089 41.8971 132.619 42.0684 132.259 42.411C131.907 42.7535 131.692 43.2367 131.613 43.8604H135.605C135.535 43.2455 135.333 42.7667 134.999 42.4241C134.665 42.0728 134.222 41.8971 133.668 41.8971Z" fill="#72728B"/>
<path d="M139.864 41.1065H142.064V42.0157H139.864V47.6947H138.81V42.0157H137.492V41.1065H138.81V39.9997C138.81 39.3935 138.994 38.9104 139.363 38.5502C139.732 38.1901 140.268 38.01 140.971 38.01C141.208 38.01 141.423 38.0364 141.616 38.0891C141.818 38.1418 141.976 38.2164 142.091 38.3131L141.814 39.1695C141.603 39.0378 141.353 38.9719 141.063 38.9719C140.263 38.9719 139.864 39.3496 139.864 40.1051V41.1065Z" fill="#72728B"/>
<path d="M148.156 39.9865V42.7931H152.083V43.7813H148.156V47.6947H147.102V38.9982H153.19V39.9865H148.156Z" fill="#72728B"/>
<path d="M159.836 41.1065V47.6947H158.913L158.847 46.6933C158.408 47.4488 157.622 47.8265 156.489 47.8265C155.777 47.8265 155.193 47.6288 154.736 47.2335C154.288 46.8382 154.064 46.2321 154.064 45.4152V41.1065H155.118V45.1385C155.118 45.7797 155.25 46.2365 155.514 46.5088C155.777 46.7724 156.164 46.9041 156.673 46.9041C157.279 46.9041 157.78 46.7197 158.175 46.3507C158.579 45.9818 158.781 45.4284 158.781 44.6905V41.1065H159.836Z" fill="#72728B"/>
<path d="M165.227 40.9747C165.973 40.9747 166.588 41.1899 167.071 41.6204C167.554 42.0508 167.796 42.6701 167.796 43.4782V47.6947H166.742V43.8472C166.742 43.162 166.592 42.6657 166.294 42.3582C166.004 42.0508 165.613 41.8971 165.121 41.8971C164.77 41.8971 164.44 41.9761 164.133 42.1342C163.825 42.2836 163.571 42.5339 163.369 42.8853C163.175 43.2279 163.079 43.6627 163.079 44.1898V47.6947H162.025V41.1065H162.947L163.013 42.1342C163.232 41.739 163.536 41.4491 163.922 41.2646C164.309 41.0713 164.743 40.9747 165.227 40.9747Z" fill="#72728B"/>
<path d="M175.77 38.0759V47.6947H174.847L174.781 46.5484C174.588 46.9349 174.289 47.2467 173.885 47.4839C173.49 47.7123 173.038 47.8265 172.528 47.8265C171.606 47.8265 170.872 47.5234 170.328 46.9173C169.792 46.3024 169.524 45.4635 169.524 44.4006C169.524 43.3377 169.792 42.5032 170.328 41.8971C170.872 41.2822 171.606 40.9747 172.528 40.9747C173.011 40.9747 173.442 41.0801 173.819 41.291C174.206 41.5018 174.505 41.7829 174.715 42.1342V38.0759H175.77ZM172.647 46.9041C173.279 46.9041 173.78 46.6845 174.149 46.2453C174.527 45.8061 174.715 45.2175 174.715 44.4797V44.3215C174.715 43.5837 174.527 42.9951 174.149 42.5559C173.78 42.1167 173.279 41.8971 172.647 41.8971C172.005 41.8971 171.5 42.1255 171.131 42.5822C170.762 43.0302 170.578 43.6364 170.578 44.4006C170.578 45.1648 170.762 45.7753 171.131 46.2321C171.5 46.6801 172.005 46.9041 172.647 46.9041Z" fill="#72728B"/>
</svg>
